<?xml version="1.0" encoding="UTF-8"?>
<svg id="Layer_1" data-name="Layer 1" xmlns="http://www.w3.org/2000/svg" viewBox="0 0 3000 800">
  <defs>
    <style>
      .cls-1 {
        fill: #f1f0f0;
      }

      .cls-2 {
        fill: #ed8722;
      }

      .cls-3 {
        fill: #4091ce;
      }

      .cls-4 {
        fill: #f3f6f9;
      }

      .cls-5 {
        fill: #d17f29;
      }

      .cls-6 {
        fill: #0a4e8c;
      }
    </style>
  </defs>
  <rect class="cls-6" width="3000" height="800"/>
  <path class="cls-5" d="M1751.13,530.8c1.04-2.66,9.15-2.46,11.09-1.34l-21.66,67.65c-1.71,5.33-4.06,7.59-8.07,8-14.64,1.49-11.53-28.76-27.96-52.09l-19.33,50.71c-1.18,2.32-11.45,2.38-12.61.02l-24.81-72.8c19.55-10.58,13.72,21.71,32.19,51.23l17.9-47.91c2.08-5.56,11.3-8.02,13.48-2.45l19.71,50.33,20.05-51.33Z"/>
  <path class="cls-5" d="M1997.93,603.15c-.07,3.35-11.06-1.23-12.95-3.51l-37.64-45.42-2.02,49.33c-3.61,1.7-8.78,1.43-11.21-.23l.26-74.21c5.15-1.24,9.68-.09,11.63,2.27l40.59,49.36,1.55-51.7,11.3.09-1.51,74.02Z"/>
  <path class="cls-5" d="M1856.17,605.86c-26.15-.21-42.27-21.68-39.87-43.1,2.73-24.37,24.09-38.09,48.83-33.99,21.26,3.52,32.88,20.63,31.93,40.66-.94,19.92-16.98,36.63-40.9,36.44ZM1885.6,566.76c0-15.91-12.89-28.8-28.8-28.8s-28.8,12.89-28.8,28.8,12.89,28.8,28.8,28.8,28.8-12.89,28.8-28.8Z"/>
  <path class="cls-5" d="M1523.65,599.32c-9.35,19.09-16.46-12.96-28-16.68-8.19-2.64-20.92-2.49-20.73,6.99l.26,13.11c.05,2.3-5.73,3.83-11.22,1.78l-.47-74.93,31.09-.27c13.25-.12,24.66,5.01,28.83,14.9,11.56,27.35-24.06,33.12.23,55.09ZM1513.85,558.71c1.28-6.49-.93-13.97-7.9-16.81-9.41-3.84-19.07-3.71-29.86-2.64-1.57,11.21-1.54,20.87-.02,32.43,19.71,3.26,35.13.53,37.79-12.98Z"/>
  <path class="cls-5" d="M1611.53,570.9l-35.52.98c-2.26,7.83-2.22,14.43.1,22.52l42.23.77.06,9.43-55.06-.17.24-75.06,53.76-.06.33,10.92-39.19-.03c-4.8,0-6.21,17.43-1.78,19.48,10.88,5.04,23.28,1.78,34.94,2.1,1.59,2.67,1.42,6.95-.11,9.12Z"/>
  <path class="cls-5" d="M1419.98,545.22c-15.41-9.19-31.32-8.28-41.89,4.28-7.73,9.19-8.99,25.38.66,36.4,20.39,23.26,47.28-6.26,49.05,6.59,1.47,10.66-34.3,22.8-55.57,3.43-14.76-13.44-15.69-36.51-5.54-50.96,14.79-21.06,47.57-20.62,60.11-7.19,3.31,3.54-.96,10.95-6.83,7.44Z"/>
  <path class="cls-5" d="M2178.66,529.91l-27.59,47.11c-4.5,7.68-2.3,18.03-2.04,26.82-5.04,1.4-8.56.79-12-.23,1.13-9.54,3-19.83-1.55-27.69l-26.57-45.82c1.86-2.18,10.11-2.64,11.86.1l23,36.09,23.43-36.17c1.36-2.1,8.29-2.76,11.47-.22Z"/>
  <path class="cls-5" d="M2093.57,594.67c1.2,2.47,1.26,6.76-.28,9.2l-50.54.47-.42-74.6c3.49-1.28,7.78-1.43,12.66-.14l-.24,64.33,38.83.75Z"/>
  <g>
    <path class="cls-2" d="M261.42,486.11c-4.45,5.79-3.4,17.08-5.71,22.11-15.46,17.4-21.22,37.79-11.2,58.89,14.17-5.96,19.61-14.44,27.39-27.44,8.22,12.43,13.21,21.13,26.59,26.55,3.64-3.96,5.28-8.7,7.35-14.02,43.69,48.17,106.95,71.34,172.47,60.61,59.45-9.74,113.38-48.97,139.79-108.38,28.25,2.24,53.59.95,78.12-6.68,6.84,134.88-97.35,249.62-230.79,258.25-134.07,8.67-252.7-90.62-263.53-227.48l.46-67.48c15.24,11.25,38.5,27.11,59.06,25.09Z"/>
    <g>
      <path class="cls-2" d="M667.57,173.12c-31.89,28.21-66.55,52.96-109.87,73.18-14.61-45.15-31.05-87.06-59.54-129.32-51.34,54.17-87.34,120.34-109.06,195.14l-42.27-18.26c1.97-6,1.72-18.13-4.42-19.3-65.05-12.41-118.28,13.42-177.92,39.73,46.52-50.05,117.66-55,177.53-53.02-1.42-16.3-2.62-29.11-9.39-41.41-42.17-10.18-83.01-2.03-125.07,15.14,23.14-102.35,107.57-174.4,204.1-188.74,104.49-15.53,204.75,34.99,255.89,126.86Z"/>
      <path class="cls-2" d="M699.55,382.31l-70.34,16.69c27.61-27.81,50.55-59.61,66.25-95.32l4.09,78.63Z"/>
      <g>
        <path class="cls-3" d="M667.57,173.12c15.03-13.29,28.41-26.68,44.82-46,13,61.11,7.02,122.08-16.93,176.57-15.69,35.71-38.64,67.51-66.25,95.32-60.32,55.11-140.13,84.63-224.14,76.82-16.06-1.49-29.46-6.2-43.11-15.03,33.32-35.22,55.06-80.5,60.39-129.68-9.11-5.43-15.65-8.86-26.08-11.92-6.2,46.98-25.57,87.56-57.52,118.53-13.94-20.51-15.71-43.53-11.86-67.86,6.18-39.1-22.52-73.09-59.4-74.87,25.43-6.23,53.07-5.29,79.34-1.15l42.27,18.26c21.72-74.8,57.72-140.96,109.06-195.14,28.48,42.27,44.92,84.17,59.54,129.32,43.32-20.22,77.98-44.97,109.87-73.18Z"/>
        <path class="cls-1" d="M696.22,497.74c-24.52,7.64-49.86,8.92-78.12,6.68-26.42,59.41-80.34,98.64-139.79,108.38-65.52,10.73-128.78-12.44-172.47-60.61-4.71-10.92-3.23-30.96-16.41-40.45,29.24-14.49,52.69-29.99,72.53-50.96,13.66,8.84,27.05,13.54,43.11,15.03,84.01,7.81,163.82-21.71,224.14-76.82l70.34-16.69,77.47-18.81c-10.39,38.17-37.7,65.35-71.9,86.08l65.4,2.15c-21.44,21.84-46.73,37.43-74.29,46.02Z"/>
        <path class="cls-1" d="M267.49,294.99c36.87,1.78,65.58,35.77,59.4,74.87-3.85,24.33-2.08,47.35,11.86,67.86-20.92,20.27-47.03,45.41-77.32,48.39-20.56,2.02-43.82-13.83-59.06-25.09-10.43-7.7-17.94-18.55-23.34-30.32,14.06-6.09,27.35-17.66,29.46-33.24-17.74-.49-35.84-5.75-43.21-19.94-2.4-4.63-.28-12.91.48-17.83,32.77-1.81,31.42-30.99,54.31-53.26,15.48-5.82,30.44-12.26,47.42-11.44ZM251.02,373.15c.33-16.02-13.04-24.12-25.48-24.22-12.16-.1-24.04,8.7-22.91,21.2,22.64-14.01,30.53-11.64,48.4,3.02Z"/>
        <path class="cls-2" d="M165.28,377.53c7.37,14.18,25.47,19.45,43.21,19.94-2.11,15.59-15.4,27.15-29.46,33.24-7.31,3.17-18.67.8-28.98-.02l9.79-17.04c-18.34-5.25-30.41-9.49-39.86-25.4l45.31-10.71Z"/>
        <path class="cls-3" d="M220.08,306.44c-22.9,22.27-21.54,51.46-54.31,53.26,5.68-36.76,13.85-38.05,54.31-53.26Z"/>
        <path class="cls-6" d="M361.96,460.79c-19.83,20.96-43.29,36.46-72.53,50.96,13.18,9.49,11.7,29.53,16.41,40.45-2.07,5.31-3.71,10.06-7.35,14.02-13.38-5.42-18.37-14.12-26.59-26.55-7.78,13-13.22,21.49-27.39,27.44-10.02-21.1-4.26-41.49,11.2-58.89,2.31-5.03,1.26-16.32,5.71-22.11,30.29-2.98,56.4-28.12,77.32-48.39,31.96-30.97,51.33-71.54,57.52-118.53,10.43,3.06,16.97,6.49,26.08,11.92-5.34,49.18-27.07,94.46-60.39,129.68Z"/>
        <path class="cls-6" d="M251.02,373.15c-17.86-14.66-25.76-17.03-48.4-3.02-1.13-12.5,10.75-21.3,22.91-21.2,12.45.1,25.81,8.2,25.48,24.22Z"/>
      </g>
    </g>
  </g>
  <g>
    <path class="cls-4" d="M1458.05,441.58c-4.3-.03-6.72-7.45-8.57-10.04-27.15,18.39-60.75,20.68-90.04,4.91-24.54-13.21-41.34-42.42-42.38-73.96-1.11-33.62,14.31-64.13,40.2-79.85,29.76-18.07,65.33-14.9,95.3,4.59l.68-101.02,43.88.1-.02,255.54-39.04-.28ZM1442.26,390.28c11.96-14.79,13.98-33.62,6.92-51.14-4.72-11.71-16.87-25.51-33.32-28.68-15.68-3.02-31.12,1.27-41.98,11.27-9.18,8.46-13.44,22.2-13.88,36.82-.65,21.43,10.5,39.35,27.16,45.92,19.78,7.81,40.76,3.56,55.11-14.19Z"/>
    <path class="cls-4" d="M1691.34,441.26l-25.69.32.04-101.51c0-14.41-6.61-26.78-15.63-33.69-11.79-9.02-26.6-11.32-41.51-6.28-19.58,6.62-32.67,26.11-32.7,47.42l-.12,93.9-26.67.27-.18-162.65c7.72-2.28,12.74-1.66,20.25-1.78,4.68-.07,8.35,6.22,12.22,13.76,34.13-26.06,81.19-24.21,105.28,13.46,13.61-19.67,33.38-29.53,57.65-30.71,35.48-1.73,64.45,23.24,64.48,59.17l.09,108.67h-25.87s.07-101.54.07-101.54c.01-14.32-6.55-26.43-15.17-33.22-11.9-9.36-26.44-11.47-41.21-7.07-21.3,6.35-34.17,26.17-34.39,48.46l-.93,93.01Z"/>
    <path class="cls-4" d="M2198.1,441.14l-26.37.13-2.28-115.39c-.45-22.74-29.95-31.34-49.32-27.18-18.2,3.91-36.43,19.92-36.85,42.43l-1.85,100.44-25.53.06-.06-163.19,24.51-.74,4.79,16.39c31.66-28.55,82.27-29.4,107.7,10.18,14.66-19.56,35.12-30.19,60.86-30.57,34.32-.52,61.51,24.22,61.53,59.07l.07,108.87h-25.74s0-101.56,0-101.56c0-14.42-6.41-27.01-15.6-33.79-11.05-8.15-24.41-10.79-38.55-7.2-22.92,5.83-36.37,27.1-36.56,50.36l-.77,91.69Z"/>
    <path class="cls-4" d="M2541.56,360.53c-.3,36.59-19.54,65.87-47.77,78.26-32.89,14.44-68.32,7.55-94.64-15.91-4.99,7.9-4.05,12.77-3.86,18.82l-25.89-.11v-255.17s25.63-.12,25.63-.12l1.58,112.67c28.28-25.03,62.01-32.08,95.34-18.65,29.32,11.81,49.91,42.18,49.6,80.22ZM2516.1,353.12c-3.37-36.35-31.31-58.65-64.36-56.38-30.07,2.06-54.77,26.95-56.82,58.87-2.4,37.33,25.53,66.96,60.22,67.32,37.13.39,64.67-29.71,60.95-69.81Z"/>
    <path class="cls-4" d="M1985.05,389.6c9.17-.49,16.35.76,24.16,3.41-9.81,33.04-39.44,51.28-72.75,53.13-50.01,2.79-87.91-34.31-89.03-83.71-1.21-53.22,39.12-92.87,93.19-88.33,45.82,3.84,76.5,44.98,71.57,90.92l-138.94.25c1.32,28.65,20.63,50.33,44.29,56.08,28.01,6.81,55.75-5.39,67.5-31.76ZM1986.77,344.76c-6.27-36.02-33.28-51.2-62.46-47.89-24.47,2.77-47.25,22.7-50.63,49.31l113.09-1.42Z"/>
    <path class="cls-4" d="M2707.38,388.99c9.47.17,16.85,1.39,23.29,5.67-11.38,32.28-38.85,49.15-70.92,51.35-50.1,3.44-90.2-33.57-90.62-83.74-.22-26.67,9.18-50.62,26.75-66.48,20.37-18.38,46.91-25.4,74.74-20.47,42.25,7.49,67.06,46.71,63.95,89.57l-139.8.23c1.46,28.83,20.98,50.85,45.56,56.54,27.87,6.45,55.2-6.59,67.05-32.69ZM2708.68,344.95c-6.75-40.72-42.34-56.12-74.6-45.12-21.51,7.12-36.65,24.61-37.97,46.32l112.56-1.2Z"/>
    <path class="cls-4" d="M1305.12,318.03c-37.38-4.87-67.13,15.69-67.7,52l-1.12,71.64-44.26.03.02-165.81,44.71-.2c-.52,7.46-2.06,13.28,3.22,22.38,17.83-18.22,38.92-27.71,66.73-23.69l-1.59,43.64Z"/>
    <rect class="cls-4" x="1038.66" y="336.47" width="166.25" height="44.35" transform="translate(762.9382 1480.3658) rotate(-89.9897)"/>
    <path class="cls-4" d="M2803.99,439.87c-7.01,3.51-16.12,1.97-27.05,1.74l-.07-163.24,26.71-.25,1.59,34.44c17.2-26.16,44.67-40.98,74.87-35.66l-1.71,25.68c-38.4-5.6-67.18,19.46-73,56.11l-1.33,81.19Z"/>
    <circle class="cls-4" cx="1121.63" cy="226.62" r="26.81"/>
    <g>
      <path class="cls-4" d="M1027.02,327.19c20.14,9.33,32.47,25.56,33.73,50.01,1.68,32.5-18.64,62.63-53.21,63.06l-128.79,1.6-.04-222.52,116.45.24c25.9.05,48.71,16.48,55.17,37.69,7.84,25.72,6.24,52.28-23.32,69.92ZM986.14,311.22c17.37-.15,25.7-18.72,23.59-31.5-2.23-13.49-14.07-21.9-29.21-21.74l-55.84.58-.03,53.21,61.5-.54ZM989.25,402.29c18.1-.17,26.42-16.22,24.55-30.35-1.68-12.7-11.52-23.69-26.71-23.78l-62.46-.37.02,55.1,64.6-.6Z"/>
      <path class="cls-6" d="M989.25,402.29l-64.6.6-.02-55.1,62.46.37c15.19.09,25.03,11.08,26.71,23.78,1.87,14.13-6.44,30.18-24.55,30.35Z"/>
      <path class="cls-6" d="M986.14,311.22l-61.5.54.03-53.21,55.84-.58c15.14-.16,26.98,8.25,29.21,21.74,2.11,12.78-6.22,31.35-23.59,31.5Z"/>
    </g>
    <path class="cls-6" d="M1442.26,390.28c-14.35,17.75-35.33,22-55.11,14.19-16.65-6.57-27.8-24.49-27.16-45.92.44-14.62,4.7-28.36,13.88-36.82,10.86-10,26.3-14.29,41.98-11.27,16.44,3.17,28.6,16.97,33.32,28.68,7.06,17.52,5.04,36.35-6.92,51.14Z"/>
    <path class="cls-6" d="M2516.1,353.12c3.72,40.1-23.83,70.19-60.95,69.81-34.69-.36-62.63-29.99-60.22-67.32,2.05-31.92,26.76-56.81,56.82-58.87,33.05-2.26,60.99,20.04,64.36,56.38Z"/>
    <path class="cls-6" d="M1986.77,344.76l-113.09,1.42c3.38-26.61,26.16-46.53,50.63-49.31,29.18-3.31,56.19,11.87,62.46,47.89Z"/>
    <path class="cls-6" d="M2708.68,344.95l-112.56,1.2c1.32-21.71,16.45-39.2,37.97-46.32,32.26-11,67.85,4.4,74.6,45.12Z"/>
  </g>
  <circle class="cls-6" cx="1856.8" cy="566.76" r="28.8"/>
  <path class="cls-6" d="M1513.85,558.71c-2.66,13.5-18.08,16.23-37.79,12.98-1.52-11.56-1.55-21.21.02-32.43,10.79-1.06,20.45-1.19,29.86,2.64,6.97,2.84,9.18,10.32,7.9,16.81Z"/>
</svg>