<?xml version="1.0" encoding="UTF-8"?>
<svg id="Layer_1" data-name="Layer 1" xmlns="http://www.w3.org/2000/svg" viewBox="0 0 3991.67 2782.45">
  <defs>
    <style>
      .cls-1 {
        fill: #4090ce;
      }

      .cls-2 {
        fill: #0c5592;
      }

      .cls-3 {
        fill: #f18821;
      }

      .cls-4 {
        fill: #fff;
      }

      .cls-5 {
        fill: #0a518e;
      }

      .cls-6 {
        fill: #f2f2f2;
      }
    </style>
  </defs>
  <path class="cls-3" d="M1957.69,2632.89c1.45-3.89,14.96-4.98,20.86-1.77l-47.91,147.42c-6.12,3.33-16.72,3.55-24.97,2.57l-40.24-107.47-39.41,105.81c-8.28,1.91-15.42,1.9-25.61.62l-49.4-150.08,23.55.2,39.5,113.69,40.66-110.43c2.36-6.41,20.55-5.2,23.81.83l38.67,107.33,40.49-108.71Z"/>
  <path class="cls-3" d="M2432.96,2780.02c-3.73,1.26-14.63,2.64-18.2-.55l-82.85-94.89c-11.26,37.16-4.55,64.42-4.62,95.54l-23.71.26-.3-149.11c13.88-4.61,21.88,1.61,30.88,12.3l70.81,84.17c10.85-37.45,4.24-64.23,4.44-95.52,6.71-2.03,12.81-2.46,23.5-1.82l.06,149.63Z"/>
  <path class="cls-3" d="M1508.29,2778.91c-36.19,12.75-35.46-30.78-57.24-41.09-12.02-5.69-36.53-6.33-41.61,7.17-4.65,12.35-1.17,24.15.71,34.67l-24.95.57-.04-149.75,65.31-.21c26.8-.09,48.73,14.44,53.64,33.92,7.45,29.57-1.39,52.97-28.76,67.92l32.94,46.8ZM1467.6,2710.73c17.45-6.84,19.78-26.46,14.34-40.64-3.65-9.52-13.78-20.07-28.82-20.04l-44.28.1-1.39,64.72c19.48,1.26,39.89,3.8,60.15-4.14Z"/>
  <path class="cls-3" d="M2165.12,2781.14c-51.87,8.33-93.95-23.84-96.76-70.45-2.97-49.24,36.79-86.8,88.66-82.35,41.85,3.59,70.19,32.97,72.12,71.67,1.93,38.56-19.29,73.95-64.02,81.14ZM2206.91,2705.37c0-31.85-25.82-57.67-57.67-57.67s-57.67,25.82-57.67,57.67,25.82,57.67,57.67,57.67,57.67-25.82,57.67-57.67Z"/>
  <path class="cls-3" d="M1679.02,2712.01l-69.54.98c-6.43,13.38-5.84,29.28-2.28,46.93l83.91,1.13c2.48,6.94,2.18,13.68.1,19.54l-108.05-.1v-150.3s106.33-.08,106.33-.08l-.1,19.36-78.96.83c-8.06,8.08-9.27,37.03.77,41.28,21.86,7.08,46.22,1.6,66.83,2.42,2.11.49,4.62,12.93.96,18.01Z"/>
  <path class="cls-3" d="M1311.51,2654.99c-7.24,25.33-54.68-35.25-97.61,13.2-17.6,19.87-19.09,53.05.48,74.54,38.99,42.83,81.7-.76,93.04,6.45,3.2,2.04,6.42,7.96,5.04,11.86-7.16,20.26-85.27,38.4-119.61-8.34-24.19-32.93-20.51-85.25,15.87-110.31,42.44-29.23,108.42-7.1,102.79,12.58Z"/>
  <path class="cls-3" d="M2791.21,2631.41l-56.57,97.27c-7.81,13.43-2.67,32.76-1.67,50.1-7.51,2.98-15.39,2.58-23.4.72.72-17.92,6.47-36-1.56-50.12l-54.19-95.14c3.17-6.82,19.7-6.48,24.49,1.02l43.62,68.35,46.45-72.2c7.73-1.98,15.83-3.62,22.85,0Z"/>
  <path class="cls-3" d="M2622.29,2761.07c1.83,6.85,1.46,13.78-.46,19.67l-102.04-.13v-149.78s21.91-.05,21.91-.05l.62,129.12,79.97,1.17Z"/>
  <g>
    <path class="cls-3" d="M1520.22,1134.27c-13.6,13.12-13.76,36.88-16.55,53.22-40.77,39.96-53.67,95.01-30.71,148.16,35.74-13.06,54.15-38.32,71.69-74.11,15.27,32.91,36.82,60.37,70.82,73.45,7.94-15.4,8.03-28.06,9.44-39.96,112.52,122.98,274.35,185.69,446.27,157.56,152.87-25.02,291.22-127.43,357.88-277.5,72.43,8.89,137.95,2.54,200.91-17.32,15.69,363.19-275.78,663.76-636.62,661.87-359.54-1.89-647.85-302.19-629.23-668l-.36-87.99c44.96,37.75,97.5,58.68,156.45,70.62Z"/>
    <path class="cls-3" d="M2554.36,330.51c-77.6,78.13-173.24,135.69-280.88,186.72-36.31-118.53-83.6-227.42-151.63-331.33-133.57,145.96-227.02,314.47-278.56,504.26l-101.54-48.92-9.19-53.54c-158.03-20.82-315.29,16.47-446.56,104.61l-9.36-21.53c130.7-90,285.33-130.58,448.57-112.09l-13.78-85.03c-2.9-17.87-14.86-27.23-32.78-29.85-103.02-15.09-205.82.75-296.76,46.09,55.17-251.71,263.87-441.97,510.23-481.52,271.56-43.59,531.03,85.89,662.25,322.14Z"/>
    <g>
      <path class="cls-1" d="M2554.36,330.51l115.19-115.97c32.27,153.6,17.25,307.37-41.96,445.6-40.04,93.47-100.44,175.67-173.17,248.05-149.35,137.72-348.13,211.47-556.84,196.08-44.6-3.29-81.19-13.95-117.23-33.07-5.46-11.1,1.44-16.51,9.73-25.89,77.91-88.07,125.25-196.49,138.33-312.93l-65.75-30.42c-14.72,115.91-65.11,221.35-144.27,303.11-36.53-46.41-45.35-105.95-33.99-164.32,19.81-101.72-56.13-194.93-154.91-202.88,70.3-10.72,142.19-10.76,212.25,3.37l101.54,48.92c51.55-189.79,144.99-358.3,278.56-504.26,68.03,103.91,115.32,212.8,151.63,331.33,107.64-51.03,203.27-108.59,280.88-186.72Z"/>
      <path class="cls-6" d="M2629.97,1157.76c-62.96,19.86-128.48,26.21-200.91,17.32-66.66,150.06-205.01,252.48-357.88,277.5-171.93,28.14-333.76-34.57-446.27-157.56,4.22-35.57-8.39-68.81-36.9-100.9,64.7-28.59,119.33-64.71,168.44-113.81,5.95-5.95,17.1-12.72,23.89-9.11,36.04,19.12,72.64,29.78,117.23,33.07,208.72,15.39,407.49-58.36,556.84-196.08l175.71-41.89,203.67-49.58c-27.52,95.57-95.26,166.19-183.45,219.14l164.9,5.38c-52.16,56.13-116.13,94.72-185.27,116.53Z"/>
      <path class="cls-6" d="M1718.39,1005.06c-55.58,57.4-123.5,106.03-198.17,129.2-58.95-11.95-111.49-32.87-156.45-70.62-23.57-19.79-42.95-47.01-61.07-75.92,40.13-12.99,71.54-41.94,79.91-84.11-46.21-1.25-85.45-15.39-113.2-50.33l3.27-43.74c87.97-12.87,79.81-83.76,138.41-138.26,38.29-14.93,76.9-27.1,118.39-33.42,98.78,7.94,174.72,101.16,154.91,202.88-11.37,58.36-2.55,117.9,33.99,164.32ZM1489.98,840.37c-.81-43.29-36.03-62.37-68.73-60.3-31.4,1.99-58.1,26.14-57.84,62.3,18.04-20.12,39.01-33.5,63.98-33.59,24.52-.1,45.55,14.57,62.59,31.59Z"/>
      <path class="cls-5" d="M1276.63,670.77c-10.35-23.79-26.92-47.15-28.99-79.04,38.29-43.28,84.81-77.2,134.23-101.84,90.94-45.34,193.74-61.18,296.76-46.09,17.92,2.62,29.89,11.98,32.78,29.85l13.78,85.03c-163.24-18.49-317.88,22.09-448.57,112.09Z"/>
      <path class="cls-5" d="M1741.75,641.24c-70.06-14.13-141.96-14.09-212.25-3.37-41.49,6.32-80.1,18.49-118.39,33.42-29.7,11.58-61.24,21.8-90.61,42.39-8.8,6.17-19.24,6.59-27.37,3.27l-7.12-24.65c131.27-88.13,288.53-125.42,446.56-104.61l9.19,53.54Z"/>
      <path class="cls-3" d="M1269.42,853.29c27.75,34.94,66.99,49.08,113.2,50.33-8.38,42.17-39.79,71.11-79.91,84.11-21.35,6.91-46.92,3.5-69.82-.76,3.13-16.95,19.57-22.42,29.41-42.68-43.27-8.93-80.81-25.74-105.09-61.87l112.22-29.12Z"/>
      <path class="cls-3" d="M2630.13,866.29l-175.71,41.89c72.73-72.38,133.13-154.58,173.17-248.05l2.54,206.16Z"/>
      <path class="cls-1" d="M1411.1,671.29c-58.6,54.5-50.44,125.4-138.41,138.26,4.12-47.58,25.81-74.01,20.43-92.61,8.13,3.32,18.57,2.9,27.37-3.27,29.37-20.59,60.91-30.81,90.61-42.39Z"/>
      <path class="cls-5" d="M1780.34,1071.2c-6.79-3.6-17.94,3.16-23.89,9.11-49.11,49.1-103.74,85.21-168.44,113.81,28.52,32.09,41.12,65.34,36.9,100.9-1.41,11.9-1.5,24.56-9.44,39.96-34-13.08-55.55-40.54-70.82-73.45-17.54,35.8-35.95,61.06-71.69,74.11-22.97-53.15-10.07-108.21,30.71-148.16,2.79-16.34,2.95-40.1,16.55-53.22,74.67-23.18,142.59-71.8,198.17-129.2,79.16-81.75,129.55-187.19,144.27-303.11l65.75,30.42c-13.08,116.44-60.42,224.86-138.33,312.93-8.3,9.38-15.19,14.79-9.73,25.89Z"/>
      <path class="cls-2" d="M1489.98,840.37c-17.04-17.01-38.07-31.68-62.59-31.59-24.96.1-45.93,13.48-63.98,33.59-.26-36.17,26.44-60.31,57.84-62.3,32.7-2.07,67.92,17,68.73,60.3Z"/>
    </g>
  </g>
  <g>
    <path class="cls-2" d="M2632.44,2412.88l-52.52-.03-.47-208.84c-.1-46.79-39.02-79.93-85.34-78.61-54.6,1.56-93.1,44.78-93.7,98.99l-2.07,188.23h-50.69s-.06-325.86-.06-325.86l51.58-.24c-1.04,14.3-3.21,23.91,4.09,39.35,28.5-34.82,67.98-49.79,111.84-48.31,40.88,1.38,79.23,19.59,105.9,61.9,40.46-55.12,108.19-76.58,172.2-52.22,45.5,17.31,72.12,61.8,72.09,110.39l-.15,215.03-50.77-.06-.64-208.48c-.1-33.84-22.2-62.75-53.61-73.65-28.98-10.06-58.69-5.82-85.54,12.47-19.1,13.01-39.94,42.42-40.24,74.04l-1.87,195.92Z"/>
    <path class="cls-2" d="M1620.64,2412.06l-51.06.52.17-202.21c.03-31.51-15.45-57.75-35.76-70.87-29.01-18.74-60.68-18.29-91.03-3.53-33.8,16.44-53.58,53.94-53.65,93.12l-.3,183.24-51.78.46-.11-325.73,50.79-.71c.58,10.4,1.3,21.48,11.89,28.98,65.89-56.73,164.15-51.86,210.53,25.04,31.31-43.53,74.53-63.31,124.9-62.87,63.11.55,118.38,46.4,118.91,111.08l1.83,223.69-52.18.5-.07-201.16c-.02-53.3-39.21-91.46-94.26-85.95-49.8,4.99-86.42,46.72-86.93,98.03l-1.9,188.37Z"/>
    <path class="cls-2" d="M713.07,2410.92l-88.37,1.75-.02-330.59,88.17-.06c-.14,16.62-3.69,30.77,4.11,50.69,34.8-41.94,82.11-62.94,137.64-53.83l-6.35,87.72c-72.4-11.78-126.87,32.76-132.53,102.11l-2.67,142.21Z"/>
    <rect class="cls-5" x="316.97" y="2203.12" width="332.44" height="90.16" transform="translate(-1765.0817 2731.0453) rotate(-89.9913)"/>
    <path class="cls-2" d="M3839.04,2410.08c-15.37,5.38-34.61,2.76-52.61,2.03l.16-324.97,51.85-.46,2.41,71.26c34.55-52.62,86.9-84.08,150.81-73.42l-2.66,50.97c-76.99-11.71-136.39,38.6-146.64,113.22l-3.33,161.37Z"/>
    <circle class="cls-2" cx="484.17" cy="1983.63" r="53.31"/>
    <g>
      <path class="cls-2" d="M294.95,2183.84c47.86,23.41,67.58,60.01,68.03,107.66.61,64.85-44.66,118.53-112.14,119.18L.03,2413.1l-.03-443.74,229.78.28c69.97.08,122.07,53.32,120.36,122.64-.08,37.97-15.1,69.44-55.18,91.57ZM212.72,2152.91c31.09-.4,47.79-28.25,48.94-51.72,1.23-25.29-15.42-53.17-44.51-53.42l-125.93-1.08.51,107.77,120.98-1.55ZM225.38,2333.43c32.39-.41,46.41-32.26,44.07-57.54-2.34-25.24-22.36-49.09-51.92-49.15l-126.25-.25.46,108.63,133.63-1.68Z"/>
      <path class="cls-4" d="M225.38,2333.43l-133.63,1.68-.46-108.63,126.25.25c29.56.06,49.58,23.91,51.92,49.15,2.34,25.28-11.68,57.13-44.07,57.54Z"/>
      <path class="cls-4" d="M212.72,2152.91l-120.98,1.55-.51-107.77,125.93,1.08c29.08.25,45.74,28.12,44.51,53.42-1.15,23.46-17.85,51.32-48.94,51.72Z"/>
    </g>
    <g>
      <path class="cls-5" d="M1148.81,2413.51l-7.08-23.52c-52.22,37.55-122.96,45.18-183.06,11.83-51.57-28.62-84.88-88.26-84.83-154.16.05-66.44,33.04-126.4,87.53-155.98,58.35-31.67,127.89-25.44,183.12,14.76l1.35-203.56,87.99-.03.02,509.63-85.04,1.03ZM1145,2257.28c5.27-60.27-37.64-106.35-90.59-108.52-55.09-2.26-95.3,41.84-95.2,99.12.09,53.72,36.53,96.61,89.07,98.13,47.08,1.36,91.94-33.95,96.73-88.74Z"/>
      <path class="cls-4" d="M1145,2257.28c-4.79,54.78-49.65,90.1-96.73,88.74-52.53-1.52-88.97-44.42-89.07-98.13-.1-57.29,40.11-101.38,95.2-99.12,52.95,2.17,95.86,48.25,90.59,108.52Z"/>
    </g>
    <g>
      <path class="cls-2" d="M3316.25,2244.49c1.65,73.82-35.7,136.24-94.77,161.99-65.99,28.77-141.55,17.49-193.28-38.97-8.68,16-4.3,30.7-4.68,45.38l-50.21-.03-.06-509.41,50.06-.39,1,230.86c50.57-52.07,120.26-70.22,186.24-45.9,61.81,22.79,104.04,81.84,105.72,156.47ZM3270.07,2249.34c0-68.68-55.67-124.35-124.35-124.35s-124.35,55.67-124.35,124.35,55.67,124.35,124.35,124.35,124.35-55.67,124.35-124.35Z"/>
      <circle class="cls-4" cx="3145.72" cy="2249.34" r="124.35"/>
    </g>
    <g>
      <path class="cls-2" d="M3647.54,2306.45l46.84,9.55c-20.19,63.69-73.22,98.17-135.78,104.77-102.19,10.79-186.23-63.88-186.89-166.81-.37-57.92,22.47-110.92,66.27-142.83,45.18-32.91,103.41-43.12,158.18-24.19,72.29,24.98,111.35,96.83,104.32,172.95l-276.44.38c-.58,55.55,39.85,100.97,89.19,112.53,55.92,13.1,111-12.24,134.31-66.34ZM3648.92,2221c-5.47-50.99-39.94-87.09-85.71-95.73-65.54-12.36-129.79,31.05-138.75,96.83l224.46-1.1Z"/>
      <path class="cls-4" d="M3648.92,2221l-224.46,1.1c8.96-65.78,73.21-109.19,138.75-96.83,45.77,8.63,80.24,44.73,85.71,95.73Z"/>
    </g>
    <g>
      <path class="cls-2" d="M2208.29,2305.81l45.92,10.07c-19.04,64.13-74.98,100.14-138.85,105.22-99.34,7.9-179.52-62.85-183.24-162.04-2.51-66.9,28.04-127.91,83.11-158.67,58.84-32.86,132.28-31.55,185.96,11.08,45.8,36.37,65.03,93.55,59.52,148.49l-277.31.16c1.76,57.02,42.13,103.28,92.3,113.31,56.13,11.22,111.33-14.5,132.6-67.62ZM2209.25,2220.87c-3.5-29.02-13.96-50.82-31.35-67.6-32.92-31.74-79.95-38.28-123.48-20.83-34.54,13.85-64.38,45.38-70.07,90.02l224.91-1.59Z"/>
      <path class="cls-6" d="M2209.25,2220.87l-224.91,1.59c5.7-44.63,35.53-76.17,70.07-90.02,43.53-17.45,90.57-10.91,123.48,20.83,17.39,16.77,27.85,38.57,31.35,67.6Z"/>
    </g>
  </g>
  <path class="cls-4" d="M1467.6,2710.73c-20.25,7.94-40.67,5.4-60.15,4.14l1.39-64.72,44.28-.1c15.04-.03,25.17,10.52,28.82,20.04,5.44,14.17,3.11,33.8-14.34,40.64Z"/>
  <circle class="cls-4" cx="2149.24" cy="2705.37" r="57.67"/>
</svg>